<svg xmlns="http://www.w3.org/2000/svg" width="320" height="64" viewBox="0 0 320 64" fill="none">
  <rect width="320" height="64" rx="18" fill="#F8F5EE"/>
  <rect x="10" y="10" width="44" height="44" rx="14" fill="#7D66D9"/>
  <path d="M24 22H40V28H30V31H38V37H30V42H24V22Z" fill="#F8F5EE"/>
  <path d="M74 24H103V31H82V39H101V46H74V24Z" fill="#171717"/>
  <path d="M111 24H119L130 38L141 24H149V46H141V36L130 48L119 36V46H111V24Z" fill="#171717"/>
  <path d="M158 24H181C189 24 194 28 194 35C194 42 189 46 181 46H158V24ZM166 31V39H180C183 39 186 38 186 35C186 32 183 31 180 31H166Z" fill="#171717"/>
  <path d="M205 24H235V31H213V33H232V39H213V46H205V24Z" fill="#171717"/>
  <path d="M243 24H251V39H270V46H243V24Z" fill="#171717"/>
  <path d="M278 24H286V46H278V24Z" fill="#171717"/>
  <path d="M293 24H317V31H301V33H315V39H301V46H293V24Z" fill="#171717"/>
</svg>
